<svg width="29" height="34" viewBox="0 0 29 34" fill="none" xmlns="http://www.w3.org/2000/svg">
<path d="M14.6336 16.4145C16.8297 16.4145 18.7311 15.655 20.2852 14.1565C21.8387 12.6582 22.6266 10.825 22.6266 8.70703C22.6266 6.58984 21.839 4.75635 20.2849 3.25757C18.7309 1.75952 16.8295 1 14.6336 1C12.4373 1 10.5361 1.75952 8.98232 3.25781C7.42853 4.7561 6.64062 6.5896 6.64062 8.70703C6.64062 10.825 7.42853 12.6584 8.98232 14.1567C10.5366 15.6548 12.438 16.4145 14.6336 16.4145ZM10.3576 4.58374C11.5498 3.43408 12.9484 2.87524 14.6336 2.87524C16.3186 2.87524 17.7174 3.43408 18.9099 4.58374C20.1021 5.73364 20.6819 7.08252 20.6819 8.70703C20.6819 10.332 20.1021 11.6807 18.9099 12.8306C17.7174 13.9805 16.3186 14.5393 14.6336 14.5393C12.9489 14.5393 11.5504 13.9802 10.3576 12.8306C9.16512 11.6809 8.58533 10.332 8.58533 8.70703C8.58533 7.08252 9.16512 5.73364 10.3576 4.58374Z" fill="white" stroke="white" stroke-width="0.5"/>
<path d="M28.6195 25.6064C28.5747 24.9829 28.4841 24.3027 28.3506 23.5845C28.2159 22.8608 28.0425 22.1768 27.8349 21.5515C27.6202 20.9053 27.3288 20.2671 26.968 19.6555C26.594 19.0208 26.1545 18.468 25.6613 18.0132C25.1456 17.5374 24.5141 17.1548 23.784 16.8757C23.0563 16.5981 22.2499 16.4575 21.3873 16.4575C21.0486 16.4575 20.721 16.5916 20.0883 16.9888C19.6989 17.2336 19.2434 17.5168 18.735 17.8301C18.3003 18.0972 17.7114 18.3474 16.984 18.574C16.2743 18.7954 15.5537 18.9077 14.8423 18.9077C14.1314 18.9077 13.4108 18.7954 12.7006 18.574C11.974 18.3477 11.3848 18.0974 10.9509 17.8303C10.4473 17.52 9.99155 17.2368 9.59633 16.9885C8.96413 16.5913 8.63652 16.4573 8.29776 16.4573C7.43491 16.4573 6.62877 16.5981 5.90138 16.876C5.1717 17.1545 4.54001 17.5371 4.02377 18.0134C3.53057 18.4685 3.09104 19.021 2.71734 19.6555C2.35706 20.2671 2.0654 20.905 1.8507 21.5518C1.64334 22.177 1.46991 22.8608 1.33521 23.5845C1.20153 24.3018 1.11115 24.9822 1.06633 25.6072C1.02228 26.2183 1 26.8542 1 27.4968C1 29.1672 1.55067 30.5195 2.63658 31.5168C3.70906 32.501 5.1279 33 6.85385 33H22.8328C24.5582 33 25.977 32.501 27.0498 31.5168C28.1359 30.5203 28.6866 29.1675 28.6866 27.4966C28.6864 26.8518 28.6638 26.2158 28.6195 25.6064V25.6064ZM25.7089 30.1582C25.0003 30.8086 24.0594 31.1248 22.8325 31.1248H6.85385C5.62667 31.1248 4.68584 30.8086 3.97744 30.1584C3.28245 29.5205 2.9447 28.6497 2.9447 27.4968C2.9447 26.8972 2.96521 26.3052 3.00622 25.7368C3.04623 25.1792 3.12801 24.5666 3.24928 23.9158C3.36904 23.2729 3.52145 22.6697 3.70273 22.1235C3.87667 21.5999 4.1139 21.0813 4.4081 20.5818C4.68888 20.1057 5.01194 19.6973 5.36843 19.3682C5.70187 19.0603 6.12215 18.8083 6.61738 18.6194C7.07539 18.4446 7.59011 18.3489 8.14888 18.3345C8.21699 18.3694 8.33827 18.436 8.53474 18.5596C8.93451 18.8108 9.39531 19.0974 9.90471 19.4111C10.4789 19.7642 11.2187 20.083 12.1026 20.3582C13.0062 20.6399 13.9278 20.783 14.8425 20.783C15.7573 20.783 16.6791 20.6399 17.5822 20.3584C18.4669 20.0828 19.2064 19.7642 19.7814 19.4106C20.3027 19.0894 20.7506 18.811 21.1504 18.5596C21.3468 18.4363 21.4681 18.3694 21.5362 18.3345C22.0952 18.3489 22.61 18.4446 23.0682 18.6194C23.5632 18.8083 23.9835 19.0605 24.3169 19.3682C24.6734 19.697 24.9965 20.1055 25.2772 20.582C25.5717 21.0813 25.8092 21.6001 25.9829 22.1233C26.1644 22.6702 26.3171 23.2732 26.4366 23.9155C26.5576 24.5676 26.6396 25.1804 26.6796 25.7371V25.7375C26.7209 26.3037 26.7417 26.8955 26.7419 27.4968C26.7417 28.6499 26.4039 29.5205 25.7089 30.1582V30.1582Z" fill="white" stroke="white" stroke-width="0.5"/>
</svg>
