<svg width="38" height="35" viewBox="0 0 38 35" fill="none" xmlns="http://www.w3.org/2000/svg">
<path d="M16.0958 27.98C14.35 27.98 12.9297 29.4003 12.9297 31.1461C12.9297 32.8919 14.35 34.3122 16.0958 34.3122C17.8416 34.3122 19.2619 32.8919 19.2619 31.1461C19.2618 29.4003 17.8415 27.98 16.0958 27.98ZM16.0958 32.5443C15.3247 32.5443 14.6975 31.9169 14.6975 31.1459C14.6975 30.3749 15.3248 29.7476 16.0958 29.7476C16.8668 29.7476 17.4941 30.375 17.4941 31.1459C17.4941 31.9171 16.8668 32.5443 16.0958 32.5443Z" fill="white" stroke="white" stroke-width="0.5"/>
<path d="M27.2013 27.98C25.4555 27.98 24.0352 29.4003 24.0352 31.1461C24.0352 32.8919 25.4555 34.3122 27.2013 34.3122C28.9471 34.3122 30.3674 32.8919 30.3674 31.1461C30.3673 29.4003 28.947 27.98 27.2013 27.98ZM27.2013 32.5443C26.4302 32.5443 25.803 31.9169 25.803 31.1459C25.803 30.3749 26.4303 29.7476 27.2013 29.7476C27.9723 29.7476 28.5996 30.375 28.5996 31.1459C28.5996 31.9171 27.9722 32.5443 27.2013 32.5443Z" fill="white" stroke="white" stroke-width="0.5"/>
<path d="M27.9803 11.3107H15.3136C14.8254 11.3107 14.4297 11.7064 14.4297 12.1946C14.4297 12.6828 14.8255 13.0785 15.3136 13.0785H27.9803C28.4685 13.0785 28.8642 12.6828 28.8642 12.1946C28.8642 11.7064 28.4685 11.3107 27.9803 11.3107Z" fill="white" stroke="white" stroke-width="0.5"/>
<path d="M27.2889 15.9008H16.0011C15.5129 15.9008 15.1172 16.2965 15.1172 16.7847C15.1172 17.2728 15.5129 17.6686 16.0011 17.6686H27.2889C27.777 17.6686 28.1728 17.2728 28.1728 16.7847C28.1728 16.2965 27.777 15.9008 27.2889 15.9008Z" fill="white" stroke="white" stroke-width="0.5"/>
<path d="M36.6022 7.37243C36.2651 6.95871 35.7656 6.72148 35.2319 6.72148H7.69928L7.14325 4.02225C7.02716 3.45919 6.64311 2.9864 6.1157 2.7574L2.23606 1.07341C1.78817 0.878853 1.26764 1.08438 1.07337 1.53213C0.878883 1.98002 1.08441 2.50061 1.53209 2.69489L5.4118 4.37894L9.68863 25.1395C9.8571 25.9571 10.5853 26.5505 11.4201 26.5505H32.5959C33.084 26.5505 33.4798 26.1548 33.4798 25.6667C33.4798 25.1785 33.084 24.7827 32.5959 24.7827H11.4202L10.8999 22.2574H32.7595C33.5943 22.2574 34.3225 21.664 34.4909 20.8464L36.9633 8.84576C37.071 8.3232 36.9393 7.78608 36.6022 7.37243ZM32.7595 20.4897H10.5358L8.0635 8.48921L35.2318 8.48928L32.7595 20.4897Z" fill="white" stroke="white" stroke-width="0.5"/>
</svg>
